<svg xmlns="http://www.w3.org/2000/svg" width="10.561" height="10.583" viewBox="0 0 10.561 10.583">
  <g id="Group_18467" data-name="Group 18467" transform="translate(-0.539)">
    <g id="Group_18466" data-name="Group 18466" transform="translate(0.539 0)">
      <path id="Path_85655" data-name="Path 85655" d="M10.823,7.767,9.346,6.29a.982.982,0,0,0-1.635.369,1,1,0,0,1-1.16.633A4.554,4.554,0,0,1,3.808,4.549a.956.956,0,0,1,.633-1.16A.982.982,0,0,0,4.81,1.754L3.333.277a1.053,1.053,0,0,0-1.424,0l-1,1c-1,1.055.105,3.851,2.585,6.33s5.275,3.64,6.33,2.585l1-1A1.053,1.053,0,0,0,10.823,7.767Z" transform="translate(-0.539 0)" fill="#e1003e"/>
    </g>
  </g>
</svg>
